<?xml version="1.0" encoding="UTF-8"?>
<svg width="23px" height="22px" viewBox="0 0 23 22" version="1.1" xmlns="http://www.w3.org/2000/svg" xmlns:xlink="http://www.w3.org/1999/xlink">
    <!-- Generator: Sketch 60 (88103) - https://sketch.com -->
    <title>05审方</title>
    <desc>Created with Sketch.</desc>
    <defs>
        <polygon id="path-1" points="0.00110081984 0.00374455512 0.00110081984 13.4242488 12.6814262 13.4242488 12.6814262 0.00374455512 0.00110081984 0.00374455512"></polygon>
    </defs>
    <g id="Page-1" stroke="none" stroke-width="1" fill="none" fill-rule="evenodd">
        <g id="导航切图" transform="translate(-1068.000000, -203.000000)">
            <g id="Group-64备份" transform="translate(876.000000, 202.500000)">
                <g id="Group-62" transform="translate(192.044222, 0.500000)">
                    <g id="临床辅助决策系统（审方" transform="translate(5.000000, 4.000000)">
                        <path d="M12.4627615,13.4429529 L6.58142175,13.4429529 C6.04088925,13.4429529 5.60123037,13.0021927 5.60123037,12.4603061 L5.60123037,11.4775634 C5.60123037,10.9356769 6.04088925,10.4949167 6.58142175,10.4949167 L12.4627615,10.4949167 C13.003294,10.4949167 13.4429529,10.9356769 13.4429529,11.4775634 L13.4429529,12.4603061 C13.4429529,13.0021927 13.003294,13.4429529 12.4627615,13.4429529 Z M12.4627615,12.4603061 L12.4627615,12.9515815 L12.4627615,12.4603061 Z M6.58142175,11.4775634 L6.58142175,12.4603061 L12.4622254,12.4603061 L12.4627615,11.4775634 L6.58142175,11.4775634 Z M9.52209163,8.03825186 C8.4409309,8.03825186 7.56170886,7.1568082 7.56170886,6.07295838 C7.56170886,4.98908937 8.4409309,4.10756894 9.52209163,4.10756894 C10.6032524,4.10756894 11.4824744,4.98908937 11.4824744,6.07295838 C11.4824744,7.1568082 10.6032524,8.03825186 9.52209163,8.03825186 Z M9.52209163,5.09031164 C8.98148255,5.09031164 8.54190024,5.53099509 8.54190024,6.07295838 C8.54190024,6.61484491 8.98148255,7.05560512 9.52209163,7.05560512 C10.0627007,7.05560512 10.502283,6.61484491 10.502283,6.07295838 C10.502283,5.53099509 10.0627007,5.09031164 9.52209163,5.09031164 Z" id="Fill-1" fill="#4585FF"></path>
                        <g id="Group-5">
                            <mask id="mask-2" fill="white">
                                <use xlink:href="#path-1"></use>
                            </mask>
                            <g id="Clip-3"></g>
                            <path d="M12.2122201,11.5069804 L6.57510518,11.5069804 L8.58819277,8.08385793 C8.84411503,7.64862829 9.44719918,7.49234928 9.87699594,7.75504855 C10.0079935,7.83462034 10.1207358,7.94864205 10.2001416,8.08481279 L12.2122201,11.5069804 Z M8.23449935,10.5483931 L10.5528259,10.5483931 L9.39415801,8.57754008 L8.23449935,10.5483931 Z" id="Fill-2" fill="#4585FF" mask="url(#mask-2)"></path>
                            <path d="M2.34841566,2.40025983 L10.3330106,2.40025983 C10.5924555,2.40025983 10.8027304,2.61484156 10.8027304,2.87960033 C10.8027304,3.14426549 10.5924555,3.35884722 10.3330106,3.35884722 L2.34841566,3.35884722 C2.08904416,3.35884722 1.87869584,3.14426549 1.87869584,2.87960033 C1.87869584,2.61484156 2.08904416,2.40025983 2.34841566,2.40025983 Z M2.34841566,5.7553625 L6.10589907,5.7553625 C6.36527057,5.7553625 6.57552716,5.96994423 6.57552716,6.234703 C6.57552716,6.49938688 6.36527057,6.71394989 6.10589907,6.71394989 L2.34841566,6.71394989 C2.08904416,6.71394989 1.87869584,6.49938688 1.87869584,6.234703 C1.87869584,5.96994423 2.08904416,5.7553625 2.34841566,5.7553625 Z M3.28776358,13.4242488 L0.939347918,13.4242488 C0.420549873,13.4242488 0,12.9950854 0,12.4656614 L0,0.962331943 C0,0.432908018 0.420549873,0.00374455512 0.939347918,0.00374455512 L11.7420783,0.00374455512 C12.2608764,0.00374455512 12.6814262,0.432908018 12.6814262,0.962331943 L12.6814262,6.234703 C12.6814262,6.49938688 12.4711513,6.71394989 12.2117981,6.71394989 C11.9523532,6.71394989 11.7420783,6.49938688 11.7420783,6.234703 L11.7420783,0.962331943 L0.939347918,0.962331943 L0.939347918,12.4656614 L3.28776358,12.4656614 C3.54720847,12.4656614 3.75748341,12.6802432 3.75748341,12.9449083 C3.75748341,13.2096671 3.54720847,13.4242488 3.28776358,13.4242488 Z M2.34841566,9.58980567 L5.16655115,9.58980567 C5.4259043,9.58980567 5.63617924,9.8043874 5.63617924,10.0691462 C5.63617924,10.3338113 5.4259043,10.5483931 5.16655115,10.5483931 L2.34841566,10.5483931 C2.08904416,10.5483931 1.87869584,10.3338113 1.87869584,10.0691462 C1.87869584,9.8043874 2.08904416,9.58980567 2.34841566,9.58980567 Z" id="Fill-4" fill="#4585FF" mask="url(#mask-2)"></path>
                        </g>
                    </g>
                </g>
            </g>
        </g>
    </g>
</svg>