<?xml version="1.0" encoding="UTF-8"?>
<svg width="22px" height="22px" viewBox="0 0 22 22" version="1.1" xmlns="http://www.w3.org/2000/svg" xmlns:xlink="http://www.w3.org/1999/xlink">
    <!-- Generator: Sketch 60 (88103) - https://sketch.com -->
    <title>集采</title>
    <desc>Created with Sketch.</desc>
    <defs>
        <polygon id="path-1" points="0.00102683784 12.5220551 11.8291549 12.5220551 11.8291549 0.00349289753 0.00102683784 0.00349289753"></polygon>
    </defs>
    <g id="Page-1" stroke="none" stroke-width="1" fill="none" fill-rule="evenodd">
        <g id="导航切图" transform="translate(-1265.000000, -144.000000)">
            <g id="05临床辅助决策系统（审方备份" transform="translate(1269.500000, 148.000000)">
                <g id="Group-5">
                    <mask id="mask-2" fill="white">
                        <use xlink:href="#path-1"></use>
                    </mask>
                    <g id="Clip-3"></g>
                    <path d="M2.1905874,2.23894732 L9.63856745,2.23894732 C9.88057602,2.23894732 10.0767192,2.43910781 10.0767192,2.68607313 C10.0767192,2.93295113 9.88057602,3.13311162 9.63856745,3.13311162 L2.1905874,3.13311162 C1.94864729,3.13311162 1.75243569,2.93295113 1.75243569,2.68607313 C1.75243569,2.43910781 1.94864729,2.23894732 2.1905874,2.23894732 Z M2.1905874,5.59212895 L9.5937755,5.59208529 C9.83571561,5.59208529 10.0318416,5.79224578 10.0318416,6.0392111 C10.0318416,6.28610656 9.83571561,6.48624959 9.5937755,6.48624959 L2.1905874,6.48629325 C1.94864729,6.48629325 1.75243569,6.28615023 1.75243569,6.03925476 C1.75243569,5.79228944 1.94864729,5.59212895 2.1905874,5.59212895 Z M6.21706409,12.5220551 L0.876217846,12.5220551 C0.392286284,12.5220551 0,12.1217341 0,11.6278908 L0,0.897657202 C0,0.403813884 0.392286284,0.00349289753 0.876217846,0.00349289753 L10.952937,0.00349289753 C11.4368686,0.00349289753 11.8291549,0.403813884 11.8291549,0.897657202 L11.8291549,6.74144186 C11.8291549,6.98833732 11.6330117,7.18848035 11.3910887,7.18848035 C11.1490801,7.18848035 10.952937,6.98833732 10.952937,6.74144186 L10.952937,0.897657202 L0.876217846,0.897657202 L0.876217846,11.6278908 L6.21706409,11.6278908 C6.45907265,11.6278908 6.6552158,11.8280513 6.6552158,12.0749293 C6.6552158,12.3218946 6.45907265,12.5220551 6.21706409,12.5220551 Z M2.1905874,8.94531058 L5.70153159,8.94531058 C5.94345458,8.94531058 6.13959772,9.14547108 6.13959772,9.3924364 C6.13959772,9.63931439 5.94345458,9.83947489 5.70153159,9.83947489 L2.1905874,9.83947489 C1.94864729,9.83947489 1.75243569,9.63931439 1.75243569,9.3924364 C1.75243569,9.14547108 1.94864729,8.94531058 2.1905874,8.94531058 Z" id="Fill-4" fill="#0E80D3" mask="url(#mask-2)"></path>
                </g>
                <path d="M11.7109539,9.00360511 L11.4307949,10.6155927 C11.4210808,10.6752455 11.3893987,10.7291051 11.3419797,10.7665786 C11.2945042,10.8036794 11.2356921,10.8232835 11.1754512,10.8220881 L8.81894219,10.8220881 C8.75653553,10.8242892 8.69608671,10.8001097 8.65241369,10.7554767 C8.60593961,10.7116603 8.57479963,10.6540514 8.56359849,10.5911686 L8.35272936,9.00360511 L11.7109539,9.00360511 Z M8.56526472,11.5787909 L11.3407398,11.5787909 C11.5175835,11.5756754 11.6878795,11.511324 11.8225622,11.396678 C11.9634347,11.2875714 12.0571871,11.1286691 12.0845671,10.9526019 L12.4975578,8.55184751 C12.5086607,8.51416169 12.5086607,8.47407356 12.4975578,8.43638775 C12.4879446,8.40091101 12.4715249,8.35520403 12.4435337,8.33138167 C12.4233153,8.29451918 12.3875296,8.27953954 12.3487923,8.2631981 C12.3120383,8.24862287 12.2728709,8.24109066 12.2333325,8.2409943 L8.25879117,8.2409943 C8.24139184,8.10876995 8.18474811,7.67813379 8.09963457,7.39856439 C8.06772678,7.29375802 8.04791617,7.22777881 7.99247555,7.17136713 C7.8510018,7.02741546 7.713991,6.9903342 7.52207363,6.99555726 L6.68686028,6.99555726 C6.61573623,6.99203368 6.56029039,6.99555726 6.49590759,7.0688298 C6.44858324,7.11996492 6.42378267,7.18796649 6.42707581,7.2575621 C6.42378267,7.32715772 6.44858324,7.74989309 6.49590759,7.80102821 C6.54641785,7.85122542 6.61573623,7.87782433 6.68686028,7.87430075 L7.06535586,7.87430075 C7.11123318,7.87430075 7.20480457,7.86883591 7.3024592,7.9488854 C7.40011383,8.02893489 7.42308183,8.33501618 7.43428296,8.39789899 L7.76592791,10.905974 C7.80536089,11.0909647 7.90442813,11.2578969 8.04791617,11.3811353 C8.18957249,11.5094063 8.37416633,11.5799164 8.56526472,11.5787909 Z M6.68501808,7.87329908 C6.92764785,7.87329908 7.12433814,7.67660879 7.12433814,7.43397902 C7.12433814,7.19134924 6.92764785,6.99465895 6.68501808,6.99465895 C6.4423883,6.99465895 6.24569801,7.19134924 6.24569801,7.43397902 C6.24569801,7.67660879 6.4423883,7.87329908 6.68501808,7.87329908 Z M11.236522,11.8185078 C10.9559945,11.8249181 10.7186988,12.0278129 10.6687861,12.3039388 C10.6188734,12.5800646 10.7701227,12.8531932 11.0306539,12.9574057 C11.2911852,13.0616182 11.5890751,12.9681453 11.743363,12.7337696 C11.8976509,12.4993938 11.8657436,12.1888177 11.6670239,11.9907086 C11.5535668,11.8761609 11.397679,11.8138058 11.236522,11.8185078 L11.236522,11.8185078 Z M8.22300882,12.4212104 C8.22300882,12.7540739 8.49284798,13.0239131 8.82571146,13.0239131 C9.15857493,13.0239131 9.42841409,12.7540739 9.42841409,12.4212104 C9.42841409,12.088347 9.15857493,11.8185078 8.82571146,11.8185078 C8.49284798,11.8185078 8.22300882,12.088347 8.22300882,12.4212104 Z" id="形状" fill="#0E80D3" fill-rule="nonzero"></path>
            </g>
        </g>
    </g>
</svg>