<?xml version="1.0" encoding="UTF-8"?>
<svg width="23px" height="22px" viewBox="0 0 23 22" version="1.1" xmlns="http://www.w3.org/2000/svg" xmlns:xlink="http://www.w3.org/1999/xlink">
    <!-- Generator: Sketch 60 (88103) - https://sketch.com -->
    <title>01首页</title>
    <desc>Created with Sketch.</desc>
    <g id="Page-1" stroke="none" stroke-width="1" fill="none" fill-rule="evenodd">
        <g id="导航切图" transform="translate(-876.000000, -203.000000)" fill="#4585FF" fill-rule="nonzero" stroke="#4585FF" stroke-width="0.2">
            <g id="Group-64备份" transform="translate(876.000000, 202.500000)">
                <g id="Group-55" transform="translate(0.192847, 0.500000)">
                    <g id="首页" transform="translate(4.021240, 4.000000)">
                        <path d="M7.23854284,0.0813879336 C7.16675107,0.0236170517 7.08278034,-0.00229231353 7.00009161,0.000158572369 C6.91740288,-0.00229231353 6.83311165,0.0236170517 6.76164038,0.0813879336 L0.156156745,5.38335439 C-0.0146692022,5.520604 -0.0508855851,5.78214854 0.0750705075,5.96771561 C0.2010266,6.15363282 0.441721322,6.19284699 0.612547269,6.05594751 L1.52084133,5.32698401 L1.52084133,12.8911182 C1.52084133,13.4558723 1.94518196,14 2.54066903,14 L5.31362606,14 C5.31362606,14 5.39182781,14.00277 5.48156752,13.9551528 C5.52291189,13.9344953 5.56553825,13.9040343 5.60079313,13.8595682 C5.69822482,13.7464773 5.69822482,13.5938222 5.69822482,13.5938222 L5.69822482,10.7735527 C5.69822482,10.7735527 5.67066191,10.2896778 6.13250091,10.2896778 L7.53179939,10.2896778 C7.77153261,10.2896778 7.96607548,10.4938016 7.96607548,10.7458927 L7.96607548,13.61553 C7.96607548,13.61553 7.96415249,13.75383 8.07568613,13.8791753 C8.17087432,13.9978682 8.34554626,14 8.34554626,14 L11.4864361,14 C12.0819232,14 12.5062638,13.4558723 12.5062638,12.8911182 L12.5062638,5.34799161 L13.3879564,6.05559738 C13.5587824,6.19284699 13.7994771,6.15328269 13.9254332,5.96736549 C14.0507483,5.78179841 14.0145319,5.52025387 13.843706,5.38335439 L7.23854284,0.0813879336 Z M11.7543732,12.528387 C11.7543732,12.8039366 11.6607875,13.1631665 11.1136958,13.1631665 L8.734632,13.1631665 L8.734632,10.5358168 C8.734632,9.94795432 8.19202725,9.47248245 7.74685419,9.47248245 L5.91616411,9.47248245 C5.47099105,9.47248245 4.92838631,9.94795432 4.92838631,10.5358168 L4.92838631,13.1631665 L2.91276833,13.1631665 C2.3653561,13.1631665 2.2720909,12.8039366 2.2720909,12.528387 L2.27785988,4.71881418 L7.00009161,0.928694202 L11.7486042,4.7401719 L11.7543732,12.528387 L11.7543732,12.528387" id="Shape"></path>
                    </g>
                </g>
            </g>
        </g>
    </g>
</svg>