<?xml version="1.0" encoding="UTF-8"?>
<svg width="23px" height="22px" viewBox="0 0 23 22" version="1.1" xmlns="http://www.w3.org/2000/svg" xmlns:xlink="http://www.w3.org/1999/xlink">
    <!-- Generator: Sketch 60 (88103) - https://sketch.com -->
    <title>干预</title>
    <desc>Created with Sketch.</desc>
    <g id="Page-1" stroke="none" stroke-width="1" fill="none" fill-rule="evenodd">
        <g id="导航切图" transform="translate(-1199.000000, -203.000000)">
            <g id="Group-64备份" transform="translate(876.000000, 202.500000)">
                <g id="患者教育-copy" transform="translate(286.969910, 0.500000)"></g>
            </g>
            <g id="干预备份" transform="translate(1203.335292, 206.500000)" fill-rule="nonzero">
                <path d="M1.13702068,0.5 C0.860878307,0.5 0.637020682,0.723857625 0.637020682,1 L0.637020682,13 C0.637020682,13.2761424 0.860878307,13.5 1.13702068,13.5 L12.7344165,13.5 C13.0105589,13.5 13.2344165,13.2761424 13.2344165,13 L13.2344165,1 C13.2344165,0.723857625 13.0105589,0.5 12.7344165,0.5 L1.13702068,0.5 Z" id="Rectangle-30" stroke="#4585FF"></path>
                <circle id="Oval-2" fill="#4585FF" cx="3.29446285" cy="3.41005454" r="1"></circle>
                <circle id="Oval-2-Copy" fill="#4585FF" cx="3.29446285" cy="6.04338735" r="1"></circle>
                <path d="M5.79391108,3.21873201 L11.1509419,3.21873201 C11.362271,3.21873201 11.533587,3.39004804 11.533587,3.60137707 C11.533587,3.8127061 11.362271,3.98402213 11.1509419,3.98402213 L5.79391108,3.98402213 C5.58258205,3.98402213 5.41126602,3.8127061 5.41126602,3.60137707 C5.41126602,3.39004804 5.58258205,3.21873201 5.79391108,3.21873201 Z" id="Rectangle-31" fill="#4585FF"></path>
                <path d="M5.79391108,5.66074229 L11.1509419,5.66074229 C11.362271,5.66074229 11.533587,5.83205832 11.533587,6.04338735 C11.533587,6.25471638 11.362271,6.42603241 11.1509419,6.42603241 L5.79391108,6.42603241 C5.58258205,6.42603241 5.41126602,6.25471638 5.41126602,6.04338735 C5.41126602,5.83205832 5.58258205,5.66074229 5.79391108,5.66074229 Z" id="Rectangle-31-Copy" fill="#4585FF"></path>
                <path d="M3.04735298,7.95481739 L11.4655443,7.95481739 C11.6768733,7.95481739 11.8481894,8.12613342 11.8481894,8.33746245 C11.8481894,8.54879148 11.6768733,8.72010751 11.4655443,8.72010751 L3.04735298,8.72010751 C2.83602395,8.72010751 2.66470792,8.54879148 2.66470792,8.33746245 C2.66470792,8.12613342 2.83602395,7.95481739 3.04735298,7.95481739 Z" id="Rectangle-31-Copy-2" fill="#4585FF"></path>
                <path d="M3.04735298,10.5396661 L11.4655443,10.5396661 C11.6768733,10.5396661 11.8481894,10.7109822 11.8481894,10.9223112 C11.8481894,11.1336402 11.6768733,11.3049562 11.4655443,11.3049562 L3.04735298,11.3049562 C2.83602395,11.3049562 2.66470792,11.1336402 2.66470792,10.9223112 C2.66470792,10.7109822 2.83602395,10.5396661 3.04735298,10.5396661 Z" id="Rectangle-31-Copy-2备份" fill="#4585FF"></path>
            </g>
        </g>
    </g>
</svg>