<?xml version="1.0" encoding="UTF-8"?>
<svg width="23px" height="22px" viewBox="0 0 23 22" version="1.1" xmlns="http://www.w3.org/2000/svg" xmlns:xlink="http://www.w3.org/1999/xlink">
    <!-- Generator: Sketch 60 (88103) - https://sketch.com -->
    <title>03知识建设</title>
    <desc>Created with Sketch.</desc>
    <g id="Page-1" stroke="none" stroke-width="1" fill="none" fill-rule="evenodd">
        <g id="导航切图" transform="translate(-972.000000, -203.000000)" fill="#4585FF" stroke="#0E80D3" stroke-width="0.2">
            <g id="Group-64备份" transform="translate(876.000000, 202.500000)">
                <g id="Group-63" transform="translate(96.118535, 0.500000)">
                    <g id="知识建设" transform="translate(5.109884, 3.500000)">
                        <path d="M11.0904732,0 L1.19899947,0 C0.536815084,0 0,0.583590193 0,1.30342892 L0,13.0339685 C0,13.7538273 0.536815084,14.3377181 1.19899947,14.3377181 L11.0904732,14.3377181 C11.7526576,14.3377181 12.2894726,13.7538273 12.2894726,13.0339685 L12.2894726,1.30342892 C12.2894726,0.583590193 11.7526576,0 11.0904732,0 Z M7.85954646,0.779223809 L9.00275322,0.779223809 L9.00275322,3.11689524 L8.43118499,2.44903312 L7.85954646,3.11689524 L7.85954646,0.779223809 Z M2.42931436,13.714339 L1.1908848,13.714339 C0.848883338,13.714339 0.571603379,13.4250372 0.571603379,13.0676012 L0.571603379,1.42602133 C0.571603379,1.06882396 0.848883338,0.779223809 1.1908848,0.779223809 L2.42931436,0.779223809 L2.42931436,13.714339 Z M11.7178693,13.0676012 C11.7178693,13.4250372 11.4486805,13.714339 11.1167327,13.714339 L3.00091774,13.714339 L3.00091774,0.779223809 L7.2090955,0.779223809 L7.2090955,4.65975042 L8.41146105,3.36629459 L9.61375266,4.65975042 L9.61375266,0.779223809 L11.1166588,0.779223809 C11.4486805,0.779223809 11.7178693,1.06882396 11.7178693,1.42602133 L11.7178693,13.0676012 Z" id="知识库"></path>
                    </g>
                </g>
            </g>
        </g>
    </g>
</svg>