<?xml version="1.0" encoding="UTF-8"?>
<svg width="22px" height="23px" viewBox="0 0 22 23" version="1.1" xmlns="http://www.w3.org/2000/svg" xmlns:xlink="http://www.w3.org/1999/xlink">
    <!-- Generator: Sketch 60 (88103) - https://sketch.com -->
    <title>r</title>
    <desc>Created with Sketch.</desc>
    <g id="关于表单" stroke="none" stroke-width="1" fill="none" fill-rule="evenodd">
        <g id="r" transform="translate(-148.000000, -256.000000)">
            <g id="编组" transform="translate(148.000000, 255.850000)">
                <rect id="矩形" x="0" y="0.3" width="22" height="22"></rect>
                <path d="M15.153319,11.4227086 C17.2012754,11.4309847 18.854789,13.097878 18.8466041,15.1458345 L18.8466041,15.1458345 L18.8449862,15.2556 C18.786917,17.2610283 17.1429463,18.8689072 15.1234617,18.8689072 C13.0672591,18.8689072 11.4003804,17.2020285 11.4003804,15.145826 C11.4003804,13.0896234 13.0672591,11.4227086 15.1234617,11.4227086 L15.1234617,11.4227086 L15.153319,11.4227086 Z M6.89546525,4.01840369 C6.86172152,4.14955422 6.84377476,4.28701131 6.84377476,4.4286601 C6.84377476,4.62866661 6.87955545,4.82031609 6.94506493,4.99755666 L5.36257994,4.99731473 L5.36257994,17.8264583 L11.4003804,17.8264583 L11.4000825,17.8280447 L11.4267746,17.826763 C11.6744228,17.826763 11.8783073,18.0141376 11.9043912,18.25485 L11.9072103,18.3071987 C11.9072103,18.572536 11.692112,18.7876345 11.4267746,18.7876345 L11.4000054,18.7869013 L11.4003804,18.7876345 L5.20274912,18.7876345 C4.7495924,18.7876345 4.3822363,18.4202784 4.3822363,17.9671216 L4.3822363,4.83891651 C4.3822363,4.38575979 4.7495924,4.01840369 5.20274912,4.01840369 L6.89546525,4.01840369 Z M15.1234617,12.353515 C13.5813105,12.353515 12.3311508,13.6036704 12.3311508,15.145826 C12.3311508,16.6879771 13.5813062,17.9381409 15.1234617,17.9381409 L15.1234617,17.9381409 L15.2210194,17.9353351 C16.7102633,17.8671509 17.898072,16.6477575 17.9157728,15.1458154 L17.9157728,15.1458154 L17.9141536,15.0498304 C17.8635562,13.5521274 16.633489,12.353515 15.1234617,12.353515 Z M14.6580766,13.2842853 C14.9151016,13.2842853 15.1234618,13.4926455 15.1234618,13.7496705 L15.1234618,13.7496705 L15.1234618,15.145826 L16.5196173,15.145826 C16.7766422,15.145826 16.9850024,15.3541862 16.9850024,15.6112112 C16.9850024,15.8682361 16.7766422,16.0765963 16.5196173,16.0765963 L16.5196173,16.0765963 L14.6580766,16.0765963 C14.4010517,16.0765963 14.1926915,15.8682361 14.1926915,15.6112112 L14.1926915,15.6112112 L14.1926915,13.7496705 C14.1926915,13.4926455 14.4010517,13.2842853 14.6580766,13.2842853 Z M16.6899286,4.01840369 C17.1430853,4.01840369 17.5104414,4.38575979 17.5104414,4.83891651 L17.5104414,10.7876345 C17.4878177,11.0288007 17.2857897,11.2177008 17.0396418,11.2177008 C16.7969607,11.2177008 16.5971655,11.0340843 16.5716047,10.7981999 L16.5701337,10.775737 L16.5688421,10.7469011 C16.5688421,10.7370552 16.5691443,10.7272799 16.5697401,10.7175839 L16.5702438,4.99731473 L14.9476128,4.99755666 C15.0131223,4.82031609 15.048903,4.62866661 15.048903,4.4286601 C15.048903,4.28701131 15.0309562,4.14955422 14.9972125,4.01840369 L16.6899286,4.01840369 Z" id="形状结合" fill="#1280D3" fill-rule="nonzero"></path>
                <path d="M13.4078773,2.78763446 L8.4848004,2.78763446 C7.57848696,2.78763446 6.84377476,3.52234667 6.84377476,4.4286601 C6.84377476,5.33497354 7.57848696,6.06968574 8.4848004,6.06968574 L13.4078773,6.06968574 C14.3141908,6.06968574 15.048903,5.33497354 15.048903,4.4286601 C15.048903,3.52234667 14.3141908,2.78763446 13.4078773,2.78763446 Z M8.4848004,3.73122421 L13.4078773,3.73122421 C13.7930605,3.73122421 14.1053132,4.04347689 14.1053132,4.4286601 C14.1053132,4.81384331 13.7930605,5.126096 13.4078773,5.126096 L8.4848004,5.126096 C8.09961719,5.126096 7.7873645,4.81384331 7.7873645,4.4286601 C7.7873645,4.04347689 8.09961719,3.73122421 8.4848004,3.73122421 Z" id="Rectangle-6" fill="#1280D3" fill-rule="nonzero"></path>
                <rect id="Rectangle-9" fill="#1280D3" fill-rule="nonzero" x="7.25403117" y="8.12096779" width="7.38461538" height="1.23076923" rx="0.615384615"></rect>
                <rect id="Rectangle-9-Copy" fill="#1280D3" fill-rule="nonzero" x="7.25403117" y="10.9927627" width="4.92194987" height="1.23076923" rx="0.615384615"></rect>
                <rect id="Rectangle-9-Copy-2" fill="#1280D3" fill-rule="nonzero" x="7.25403117" y="13.8645575" width="3.3692227" height="1.23076923" rx="0.615384615"></rect>
            </g>
        </g>
    </g>
</svg>