<?xml version="1.0" encoding="UTF-8"?>
<svg width="22px" height="23px" viewBox="0 0 22 23" version="1.1" xmlns="http://www.w3.org/2000/svg" xmlns:xlink="http://www.w3.org/1999/xlink">
    <!-- Generator: Sketch 49.3 (51167) - http://www.bohemiancoding.com/sketch -->
    <title>icons/utility/offline</title>
    <desc>Created with Sketch.</desc>
    <defs></defs>
    <g id="Page-1" stroke="none" stroke-width="1" fill="none" fill-rule="evenodd">
        <g id="登录超时" transform="translate(-63.000000, -1102.000000)" fill="#706E6B" fill-rule="nonzero">
            <g id="Group-56" transform="translate(43.000000, 1075.000000)">
                <g id="icons/utility/offline" transform="translate(20.000000, 27.000000)">
                    <path d="M15,15.7 C15.2,15.4 15.2,15.1 15,14.8 L14.2,14 C14,13.8 13.6,13.8 13.4,14 L11.3,16 C11.2,16.2 10.9,16.2 10.8,16 L8.7,14 C8.5,13.8 8.1,13.8 7.9,14 L7.1,14.8 C6.8,15.1 6.8,15.4 7.1,15.7 L9.1,17.7 C9.2,17.8 9.2,18.1 9.1,18.2 L7.1,20.3 C6.8,20.5 6.8,20.9 7.1,21.1 L7.9,21.9 C8.1,22.2 8.5,22.2 8.7,21.9 L10.8,19.9 C10.9,19.8 11.2,19.8 11.3,19.9 L13.4,21.9 C13.6,22.2 14,22.2 14.2,21.9 L15,21.1 C15.2,20.9 15.2,20.5 15,20.3 L13,18.2 C12.8,18.1 12.8,17.8 13,17.7 L15,15.7 Z M21,4.4 C18.5,1.5 14.9,0 11,0 C7.1,0 3.6,1.5 1.1,4.4 C0.9,4.5 0.9,4.9 1.1,5 L2.5,6.2 C2.7,6.4 3,6.3 3.2,6.2 C5.2,4 8,2.7 11,2.7 C14,2.7 16.9,4 18.9,6.2 C19.1,6.3 19.4,6.3 19.6,6.2 L21,5 C21.2,4.8 21.2,4.5 21,4.4 Z M11,6.4 C9.1,6.4 7.3,7.3 6,8.7 C5.8,8.9 5.8,9.2 6,9.4 L7.5,10.5 C7.7,10.7 8,10.7 8.1,10.5 C8.9,9.7 9.9,9.2 11,9.2 C12.1,9.2 13.2,9.7 14,10.4 C14.1,10.6 14.4,10.6 14.6,10.5 L16,9.4 C16.3,9.2 16.3,8.9 16.1,8.7 C14.8,7.3 13,6.4 11,6.4 Z" id="Shape"></path>
                </g>
            </g>
        </g>
    </g>
</svg>