<?xml version="1.0" encoding="UTF-8"?>
<svg width="23px" height="22px" viewBox="0 0 23 22" version="1.1" xmlns="http://www.w3.org/2000/svg" xmlns:xlink="http://www.w3.org/1999/xlink">
    <!-- Generator: Sketch 60 (88103) - https://sketch.com -->
    <title>07患者教育</title>
    <desc>Created with Sketch.</desc>
    <defs>
        <polygon id="path-1" points="1.24103715e-21 13.4017094 17 13.4017094 17 -9.39306145e-16 0 -9.39306145e-16"></polygon>
        <path d="M1.60499895,8.93447293 C1.36376558,8.93447293 1.16874838,9.09157711 1.16874838,9.28473159 L1.16874838,9.92438522 C1.16874838,10.118036 1.36376558,10.2746439 1.60499895,10.2746439 C1.84552605,10.2746439 2.04054325,10.118036 2.04054325,9.92438522 L2.04054325,9.28473159 C2.04054325,9.09157711 1.84552605,8.93447293 1.60499895,8.93447293 Z" id="path-3"></path>
        <filter x="-700.0%" y="-373.1%" width="1487.2%" height="1144.6%" filterUnits="objectBoundingBox" id="filter-4">
            <feOffset dx="0" dy="2" in="SourceAlpha" result="shadowOffsetOuter1"></feOffset>
            <feGaussianBlur stdDeviation="2" in="shadowOffsetOuter1" result="shadowBlurOuter1"></feGaussianBlur>
            <feColorMatrix values="0 0 0 0 0   0 0 0 0 0   0 0 0 0 0  0 0 0 0.5 0" type="matrix" in="shadowBlurOuter1"></feColorMatrix>
        </filter>
    </defs>
    <g id="Page-1" stroke="none" stroke-width="1" fill="none" fill-rule="evenodd">
        <g id="导航切图" transform="translate(-1162.000000, -203.000000)">
            <g id="Group-64备份" transform="translate(876.000000, 202.500000)">
                <g id="患者教育-copy" transform="translate(286.969910, 0.500000)">
                    <g id="知识" transform="translate(2.500000, 4.000000)">
                        <mask id="mask-2" fill="white">
                            <use xlink:href="#path-1"></use>
                        </mask>
                        <g id="Clip-2"></g>
                        <g id="Fill-1" mask="url(#mask-2)">
                            <use fill="black" fill-opacity="1" filter="url(#filter-4)" xlink:href="#path-3"></use>
                            <use fill="#4585FF" fill-rule="evenodd" xlink:href="#path-3"></use>
                        </g>
                        <path d="M16.7319908,3.68873048 L8.57294557,0.0395130274 C8.45177253,-0.0152438544 8.31306341,-0.0126462358 8.19314949,0.0445473503 L0.256395992,3.87451768 C0.0950685099,3.95228533 -0.00508868203,4.11644104 0.000199617709,4.29602154 C0.00448062226,4.47544113 0.112970893,4.6340338 0.277594977,4.70334194 L1.18624392,5.08381262 C1.18615234,5.08983541 1.18454983,5.09567431 1.18454983,5.10176607 L1.18454983,8.36244414 C1.18454983,8.61296492 1.38683302,8.81617685 1.6370543,8.81617685 C1.886543,8.81617685 2.08882619,8.61296492 2.08882619,8.36244414 L2.08882619,5.46166269 L2.95242156,5.82319144 L2.95242156,10.5152034 C2.95242156,10.5294098 2.95313125,10.5433174 2.95457351,10.557317 C2.95384093,10.5699832 2.95331439,10.5841667 2.95313125,10.5997984 C2.95187213,11.0620596 3.16006173,11.4834715 3.47296424,11.8218285 C4.418906,12.8231531 6.30383001,13.3889512 8.49959616,13.4017094 C9.96280689,13.4004451 11.2900557,13.1322237 12.29046,12.6730889 C12.7906279,12.4416939 13.2121809,12.1624384 13.5263425,11.8218285 C13.8382607,11.4834715 14.0467021,11.0620596 14.0459924,10.5997984 C14.0459924,10.5822817 14.045443,10.566581 14.0445501,10.5526504 C14.0456261,10.54026 14.0459924,10.5277777 14.0459924,10.5152034 L14.0459924,5.70933298 L16.7305485,4.51872711 C16.8941195,4.44617769 17,4.28381503 17,4.10439544 C17,3.92481494 16.8948292,3.76130289 16.7319908,3.68873048 Z M12.8607265,11.2056642 C12.260058,11.8898034 10.523939,12.5059907 8.49968773,12.4931406 C7.14979772,12.4944049 5.92959695,12.2376774 5.08630774,11.847253 C4.66429684,11.6532822 4.33960439,11.4269215 4.13784775,11.2056642 C3.94119625,10.9885217 3.86260434,10.7970795 3.85759075,10.6164185 C3.8597427,10.6034764 3.86294773,10.5810404 3.8653744,10.5489724 C3.86857943,10.5057784 3.86590094,10.4630441 3.85722446,10.4216431 L3.85722446,9.33707985 L3.85722446,8.54131202 L3.85722446,6.20202998 L8.3477693,8.08210821 C8.36216905,8.08810802 8.3771869,8.09107344 8.39202161,8.0954871 C8.40607796,8.09969386 8.41992827,8.10534885 8.43432801,8.10822232 C8.44657581,8.11065903 8.45900674,8.11056708 8.47143768,8.11190037 C8.4882412,8.11380835 8.50497603,8.11693469 8.52187112,8.11693469 C8.54584017,8.11658987 8.56747412,8.1131647 8.58913097,8.10994641 C8.64599736,8.10049843 8.67587282,8.09107344 8.70474098,8.07824626 L13.1413497,6.11081449 L13.1413497,8.54087525 L13.1413497,9.33753961 L13.1413497,10.4246085 C13.132513,10.466906 13.1299948,10.5104449 13.1337492,10.5540067 C13.136794,10.5849023 13.1401135,10.6054534 13.141716,10.6167634 C13.1366109,10.7974473 13.058019,10.9887056 12.8607265,11.2056642 Z M13.4118772,4.99770041 C13.4116025,4.99779236 13.4112362,4.99788431 13.4109844,4.99797626 L8.51676597,7.16843607 L3.57930256,5.1009615 C3.57921099,5.1009615 3.57911942,5.10086955 3.57893628,5.10086955 L1.55736351,4.25427574 L8.39614237,0.954173638 L15.431733,4.10179782 L13.4118772,4.99770041 Z" id="Fill-3" fill="#4585FF" mask="url(#mask-2)"></path>
                    </g>
                </g>
            </g>
        </g>
    </g>
</svg>