<?xml version="1.0" encoding="UTF-8"?>
<svg width="22px" height="22px" viewBox="0 0 22 22" version="1.1" xmlns="http://www.w3.org/2000/svg" xmlns:xlink="http://www.w3.org/1999/xlink">
    <!-- Generator: Sketch 49.3 (51167) - http://www.bohemiancoding.com/sketch -->
    <title>登录&amp;首页</title>
    <desc>Created with Sketch.</desc>
    <defs></defs>
    <g id="Page-1" stroke="none" stroke-width="1" fill="none" fill-rule="evenodd">
        <g id="登录&amp;首页" transform="translate(-236.000000, -2992.000000)" fill="#0E80D3">
            <g id="Group-49" transform="translate(236.000000, 2992.000000)">
                <g id="Group-45" transform="translate(4.500000, 3.000000)">
                    <path d="M0.8984375,2.09072978 L0.8984375,14.4773176 L11.6015625,14.4773176 L11.6015625,2.09072978 L9.41054715,2.09072978 L9.2369443,1.40958361 C9.16228947,1.11666876 8.8984457,0.90729783 8.59375,0.90729783 L3.90625,0.90729783 C3.6015543,0.90729783 3.33771053,1.11666876 3.2630557,1.40958361 L3.08945285,2.09072978 L0.8984375,2.09072978 Z M2.39297558,1.18343195 C2.5664298,0.50286895 3.17818772,1.35061834e-16 3.90625,0 L8.59375,0 C9.32181228,-1.35061834e-16 9.9335702,0.50286895 10.1070244,1.18343195 L11.71875,1.18343195 C12.1502225,1.18343195 12.5,1.53665897 12.5,1.97238659 L12.5,14.5956607 C12.5,15.0313884 12.1502225,15.3846154 11.71875,15.3846154 L0.78125,15.3846154 C0.349777539,15.3846154 5.28401368e-17,15.0313884 0,14.5956607 L0,1.97238659 C-5.28401368e-17,1.53665897 0.349777539,1.18343195 0.78125,1.18343195 L2.39297558,1.18343195 Z" id="Combined-Shape" fill-rule="nonzero"></path>
                    <path d="M4.03846154,0.829326923 C3.67735228,0.829326923 3.38461538,1.10376776 3.38461538,1.44230769 C3.38461538,1.78084762 3.67735228,2.05528846 4.03846154,2.05528846 L8.65384615,2.05528846 C9.01495541,2.05528846 9.30769231,1.78084762 9.30769231,1.44230769 C9.30769231,1.10376776 9.01495541,0.829326923 8.65384615,0.829326923 L4.03846154,0.829326923 Z M4.03846154,0 L8.65384615,0 C9.503515,-1.46326533e-16 10.1923077,0.645743149 10.1923077,1.44230769 C10.1923077,2.23887224 9.503515,2.88461538 8.65384615,2.88461538 L4.03846154,2.88461538 C3.18879269,2.88461538 2.5,2.23887224 2.5,1.44230769 C2.5,0.645743149 3.18879269,1.46326533e-16 4.03846154,0 Z" id="Rectangle-6" fill-rule="nonzero"></path>
                    <rect id="Rectangle-9" x="3" y="5" width="6.73076923" height="1" rx="0.5"></rect>
                    <rect id="Rectangle-9-Copy" x="3" y="8" width="6.73076923" height="1" rx="0.5"></rect>
                    <rect id="Rectangle-9-Copy-2" x="3" y="11" width="6.73076923" height="1" rx="0.5"></rect>
                </g>
            </g>
        </g>
    </g>
</svg>