<?xml version="1.0" encoding="UTF-8"?>
<svg width="23px" height="23px" viewBox="0 0 23 23" version="1.1" xmlns="http://www.w3.org/2000/svg" xmlns:xlink="http://www.w3.org/1999/xlink">
    <!-- Generator: Sketch 51.3 (57544) - http://www.bohemiancoding.com/sketch -->
    <title>点评</title>
    <desc>Created with Sketch.</desc>
    <defs>
        <polygon id="path-1" points="0.00107686027 0.00366305411 0.00107686027 13.1320673 12.4054124 13.1320673 12.4054124 0.00366305411 0.00107686027 0.00366305411"></polygon>
    </defs>
    <g id="Page-1" stroke="none" stroke-width="1" fill="none" fill-rule="evenodd">
        <g id="导航切图" transform="translate(-1227.000000, -233.000000)">
            <g id="Group-64" transform="translate(876.000000, 232.861899)">
                <g id="患者教育-copy" transform="translate(286.969910, 0.500000)"></g>
            </g>
            <g id="点评" transform="translate(1232.035748, 237.254477)">
                <g id="05临床辅助决策系统（审方" transform="translate(0.203748, 0.000000)">
                    <g id="Group-5">
                        <mask id="mask-2" fill="white">
                            <use xlink:href="#path-1"></use>
                        </mask>
                        <g id="Clip-3"></g>
                        <path d="M4.74285154,13.1320673 L0.918902817,13.1320673 C0.411396519,13.1320673 0,12.7122447 0,12.1943438 L0,0.941386591 C0,0.423485686 0.411396519,0.00366305411 0.918902817,0.00366305411 L11.4865096,0.00366305411 C11.9940159,0.00366305411 12.4054124,0.423485686 12.4054124,0.941386591 L12.4054124,6.09900341 C12.4054124,6.35792639 12.1997141,6.56781939 11.9460058,6.56781939 C11.6922078,6.56781939 11.4865096,6.35792639 11.4865096,6.09900341 L11.4865096,0.941386591 L0.918902817,0.941386591 L0.918902817,12.1943438 L4.74285154,12.1943438 C4.99664956,12.1943438 5.20234782,12.4042551 5.20234782,12.6631597 C5.20234782,12.922156 4.99664956,13.1320673 4.74285154,13.1320673 Z" id="Fill-4" fill="#0E80D3" mask="url(#mask-2)"></path>
                        <rect id="Rectangle-34" fill="#0E80D3" fill-rule="nonzero" mask="url(#mask-2)" x="2.03887675" y="5.90258882" width="8.49790725" height="1" rx="0.5"></rect>
                        <rect id="Rectangle-34-Copy-2" fill="#0E80D3" fill-rule="nonzero" mask="url(#mask-2)" x="2.03887675" y="9.3017015" width="4.48245084" height="1" rx="0.5"></rect>
                        <rect id="Rectangle-34-Copy" fill="#0E80D3" fill-rule="nonzero" mask="url(#mask-2)" x="2.03887675" y="2.50347613" width="8.49790725" height="1" rx="0.5"></rect>
                    </g>
                </g>
                <g id="Group-67" transform="translate(6.519928, 7.334920)" fill="#0E80D3" fill-rule="nonzero">
                    <path d="M6.47214215,1.75374126 L6.12710337,2.07601307 L4.76157184,0.650111477 L5.10661063,0.327767896 C5.51778601,-0.0856177848 6.17634871,-0.11113254 6.61791408,0.269166497 C6.96364922,0.719980996 6.89745906,1.36389662 6.46726761,1.73418353 L6.47214215,1.75374126 Z" id="Path"></path>
                    <path d="M0.52099584,4.60095369 C0.532780439,4.54360829 0.563598952,4.49195078 0.608451851,4.45445019 L4.17529297,1.15822018 L5.51166654,2.56463581 L1.97398338,5.86578218 C1.92788059,5.90200882 1.8750106,5.92858221 1.81844452,5.94385158 L0.360564589,6.34435429 C0.335316978,6.35255418 0.308123122,6.35255418 0.28287551,6.34435429 C0.203490164,6.34602297 0.126640291,6.31616605 0.0690207427,6.26129676 C-0.00309743435,6.18342473 -0.0204707907,6.06911073 0.0252927369,5.97315228 L0.52099584,4.60095369 Z" id="Path"></path>
                </g>
            </g>
        </g>
    </g>
</svg>