<?xml version="1.0" encoding="UTF-8"?>
<svg width="23px" height="22px" viewBox="0 0 23 22" version="1.1" xmlns="http://www.w3.org/2000/svg" xmlns:xlink="http://www.w3.org/1999/xlink">
    <!-- Generator: Sketch 60 (88103) - https://sketch.com -->
    <title>02用户中心</title>
    <desc>Created with Sketch.</desc>
    <g id="Page-1" stroke="none" stroke-width="1" fill="none" fill-rule="evenodd">
        <g id="导航切图" transform="translate(-924.000000, -203.000000)" fill="#4585FF" fill-rule="nonzero">
            <g id="Group-64备份" transform="translate(876.000000, 202.500000)">
                <g id="Group-61" transform="translate(48.155691, 0.500000)">
                    <g id="用户中心" transform="translate(4.222950, 4.000000)">
                        <g id="Group-50">
                            <path d="M6.5625,6.8680394 C8.18099222,6.8680394 9.4930394,5.55599222 9.4930394,3.9375 C9.4930394,2.31900778 8.18099222,1.0069606 6.5625,1.0069606 C4.94400778,1.0069606 3.6319606,2.31900778 3.6319606,3.9375 C3.6319606,5.55599222 4.94400778,6.8680394 6.5625,6.8680394 Z M6.5625,7.875 C4.3878788,7.875 2.625,6.1121212 2.625,3.9375 C2.625,1.7628788 4.3878788,0 6.5625,0 C8.7371212,0 10.5,1.7628788 10.5,3.9375 C10.5,6.1121212 8.7371212,7.875 6.5625,7.875 Z" id="Oval-10"></path>
                            <path d="M12.1138554,14 C12.1138554,10.7259695 9.62742071,8.07377252 6.5625,8.07377252 C3.49757929,8.07377252 1.0111446,10.7259695 1.0111446,14 L0,14 C0,10.1340068 2.93813133,7 6.5625,7 C10.1868687,7 13.125,10.1340068 13.125,14 L12.1138554,14 Z M13.125,14 L12.1138554,14 C12.1138554,10.7259695 9.62742071,8.07377252 6.5625,8.07377252 C3.49757929,8.07377252 1.0111446,10.7259695 1.0111446,14 L0,14 C0,10.1340068 2.93813133,7 6.5625,7 C10.1868687,7 13.125,10.1340068 13.125,14 Z" id="Combined-Shape"></path>
                        </g>
                    </g>
                </g>
            </g>
        </g>
    </g>
</svg>